<mxfile host="app.diagrams.net" modified="2023-07-04T16:37:25.838Z" agent="Mozilla/5.0 (Windows NT 10.0; Win64; x64) AppleWebKit/537.36 (KHTML, like Gecko) Chrome/114.0.0.0 Safari/537.36 Edg/114.0.1823.67" etag="V-vplfTmExCSxEh55azo" version="21.5.2" type="device">
  <diagram name="Страница 1" id="QZlu0YWr4F-fFjVyZ6sb">
    <mxGraphModel dx="1970" dy="612" grid="1" gridSize="10" guides="1" tooltips="1" connect="1" arrows="1" fold="1" page="1" pageScale="1" pageWidth="827" pageHeight="1169" math="0" shadow="0">
      <root>
        <mxCell id="0" />
        <mxCell id="1" parent="0" />
        <mxCell id="YiXywBWrjNP2boizeY7X-9" value="Карта" style="swimlane;whiteSpace=wrap;html=1;" parent="1" vertex="1">
          <mxGeometry x="230" y="147" width="150" height="213" as="geometry" />
        </mxCell>
        <mxCell id="YiXywBWrjNP2boizeY7X-11" value="*ПП за карту" style="text;html=1;align=center;verticalAlign=middle;resizable=0;points=[];autosize=1;strokeColor=none;fillColor=none;" parent="YiXywBWrjNP2boizeY7X-9" vertex="1">
          <mxGeometry x="20" y="43" width="90" height="30" as="geometry" />
        </mxCell>
        <mxCell id="YiXywBWrjNP2boizeY7X-14" value="*Свойство карты" style="text;html=1;align=center;verticalAlign=middle;resizable=0;points=[];autosize=1;strokeColor=none;fillColor=none;" parent="YiXywBWrjNP2boizeY7X-9" vertex="1">
          <mxGeometry x="5" y="63" width="120" height="30" as="geometry" />
        </mxCell>
        <mxCell id="YiXywBWrjNP2boizeY7X-15" value="* название карты" style="text;html=1;align=center;verticalAlign=middle;resizable=0;points=[];autosize=1;strokeColor=none;fillColor=none;" parent="YiXywBWrjNP2boizeY7X-9" vertex="1">
          <mxGeometry x="5" y="83" width="120" height="30" as="geometry" />
        </mxCell>
        <mxCell id="YiXywBWrjNP2boizeY7X-32" value="о Картинка карты" style="text;html=1;align=center;verticalAlign=middle;resizable=0;points=[];autosize=1;strokeColor=none;fillColor=none;" parent="YiXywBWrjNP2boizeY7X-9" vertex="1">
          <mxGeometry x="5" y="123" width="120" height="30" as="geometry" />
        </mxCell>
        <mxCell id="YiXywBWrjNP2boizeY7X-60" value="ID_Типа" style="text;html=1;align=center;verticalAlign=middle;resizable=0;points=[];autosize=1;strokeColor=none;fillColor=none;" parent="YiXywBWrjNP2boizeY7X-9" vertex="1">
          <mxGeometry x="30" y="103" width="70" height="30" as="geometry" />
        </mxCell>
        <mxCell id="YiXywBWrjNP2boizeY7X-65" value="ID_карты" style="text;html=1;align=center;verticalAlign=middle;resizable=0;points=[];autosize=1;strokeColor=none;fillColor=none;" parent="YiXywBWrjNP2boizeY7X-9" vertex="1">
          <mxGeometry x="30" y="23" width="70" height="30" as="geometry" />
        </mxCell>
        <mxCell id="4wUArGgQNH9RsOG9-d7T-1" value="" style="rounded=0;whiteSpace=wrap;html=1;" vertex="1" parent="YiXywBWrjNP2boizeY7X-9">
          <mxGeometry y="153" width="150" height="60" as="geometry" />
        </mxCell>
        <mxCell id="4wUArGgQNH9RsOG9-d7T-8" value="-Использование карты()" style="text;html=1;strokeColor=none;fillColor=none;align=center;verticalAlign=middle;whiteSpace=wrap;rounded=0;" vertex="1" parent="YiXywBWrjNP2boizeY7X-9">
          <mxGeometry x="-10" y="146" width="160" height="30" as="geometry" />
        </mxCell>
        <mxCell id="4wUArGgQNH9RsOG9-d7T-11" value="-Просмотр свойств карты()" style="text;html=1;strokeColor=none;fillColor=none;align=left;verticalAlign=middle;whiteSpace=wrap;rounded=0;" vertex="1" parent="YiXywBWrjNP2boizeY7X-9">
          <mxGeometry x="2" y="168" width="146" height="30" as="geometry" />
        </mxCell>
        <mxCell id="YiXywBWrjNP2boizeY7X-16" value="Игрок" style="swimlane;whiteSpace=wrap;html=1;" parent="1" vertex="1">
          <mxGeometry x="740" y="172.5" width="125" height="220" as="geometry" />
        </mxCell>
        <mxCell id="YiXywBWrjNP2boizeY7X-18" value="ID_карты" style="text;html=1;align=center;verticalAlign=middle;resizable=0;points=[];autosize=1;strokeColor=none;fillColor=none;" parent="YiXywBWrjNP2boizeY7X-16" vertex="1">
          <mxGeometry x="25" y="47" width="70" height="30" as="geometry" />
        </mxCell>
        <mxCell id="YiXywBWrjNP2boizeY7X-29" value="*ПП игрока" style="text;html=1;align=center;verticalAlign=middle;resizable=0;points=[];autosize=1;strokeColor=none;fillColor=none;" parent="YiXywBWrjNP2boizeY7X-16" vertex="1">
          <mxGeometry x="15" y="68.5" width="90" height="30" as="geometry" />
        </mxCell>
        <mxCell id="YiXywBWrjNP2boizeY7X-35" value="*ник игрока" style="text;html=1;align=center;verticalAlign=middle;resizable=0;points=[];autosize=1;strokeColor=none;fillColor=none;" parent="YiXywBWrjNP2boizeY7X-16" vertex="1">
          <mxGeometry x="15" y="87" width="90" height="30" as="geometry" />
        </mxCell>
        <mxCell id="YiXywBWrjNP2boizeY7X-62" value="ID_Игрока" style="text;html=1;align=center;verticalAlign=middle;resizable=0;points=[];autosize=1;strokeColor=none;fillColor=none;" parent="YiXywBWrjNP2boizeY7X-16" vertex="1">
          <mxGeometry x="20" y="27" width="80" height="30" as="geometry" />
        </mxCell>
        <mxCell id="4wUArGgQNH9RsOG9-d7T-4" value="" style="rounded=0;whiteSpace=wrap;html=1;" vertex="1" parent="YiXywBWrjNP2boizeY7X-16">
          <mxGeometry y="120" width="125" height="100" as="geometry" />
        </mxCell>
        <mxCell id="4wUArGgQNH9RsOG9-d7T-3" value="-Авторизация()&lt;br&gt;-Регистрация()&lt;br&gt;-Участие в партии()&lt;br&gt;-Редактирование профиля()&lt;br&gt;-Настройка игры()" style="text;html=1;strokeColor=none;fillColor=none;align=left;verticalAlign=middle;whiteSpace=wrap;rounded=0;" vertex="1" parent="YiXywBWrjNP2boizeY7X-16">
          <mxGeometry y="147" width="120" height="30" as="geometry" />
        </mxCell>
        <mxCell id="YiXywBWrjNP2boizeY7X-63" style="edgeStyle=orthogonalEdgeStyle;rounded=0;orthogonalLoop=1;jettySize=auto;html=1;entryX=0;entryY=0.25;entryDx=0;entryDy=0;endArrow=none;endFill=0;endSize=10;" parent="1" source="YiXywBWrjNP2boizeY7X-21" target="YiXywBWrjNP2boizeY7X-16" edge="1">
          <mxGeometry relative="1" as="geometry" />
        </mxCell>
        <mxCell id="4wUArGgQNH9RsOG9-d7T-15" style="edgeStyle=orthogonalEdgeStyle;rounded=0;orthogonalLoop=1;jettySize=auto;html=1;endArrow=none;endFill=0;" edge="1" parent="1" source="YiXywBWrjNP2boizeY7X-21">
          <mxGeometry relative="1" as="geometry">
            <mxPoint x="380" y="227" as="targetPoint" />
          </mxGeometry>
        </mxCell>
        <mxCell id="YiXywBWrjNP2boizeY7X-21" value="Партия" style="swimlane;whiteSpace=wrap;html=1;" parent="1" vertex="1">
          <mxGeometry x="490" y="147" width="130" height="160" as="geometry" />
        </mxCell>
        <mxCell id="YiXywBWrjNP2boizeY7X-23" value="ID_карты" style="text;html=1;align=center;verticalAlign=middle;resizable=0;points=[];autosize=1;strokeColor=none;fillColor=none;" parent="YiXywBWrjNP2boizeY7X-21" vertex="1">
          <mxGeometry x="21" y="33" width="70" height="30" as="geometry" />
        </mxCell>
        <mxCell id="YiXywBWrjNP2boizeY7X-33" value="ID_Игроков" style="text;html=1;align=center;verticalAlign=middle;resizable=0;points=[];autosize=1;strokeColor=none;fillColor=none;" parent="YiXywBWrjNP2boizeY7X-21" vertex="1">
          <mxGeometry x="17" y="50" width="90" height="30" as="geometry" />
        </mxCell>
        <mxCell id="YiXywBWrjNP2boizeY7X-46" value="ID_жетоны" style="text;html=1;align=center;verticalAlign=middle;resizable=0;points=[];autosize=1;strokeColor=none;fillColor=none;" parent="YiXywBWrjNP2boizeY7X-21" vertex="1">
          <mxGeometry x="20" y="70" width="80" height="30" as="geometry" />
        </mxCell>
        <mxCell id="YiXywBWrjNP2boizeY7X-66" value="ID_Партии" style="text;html=1;align=center;verticalAlign=middle;resizable=0;points=[];autosize=1;strokeColor=none;fillColor=none;" parent="YiXywBWrjNP2boizeY7X-21" vertex="1">
          <mxGeometry x="20" y="16" width="80" height="30" as="geometry" />
        </mxCell>
        <mxCell id="4wUArGgQNH9RsOG9-d7T-12" value="" style="rounded=0;whiteSpace=wrap;html=1;" vertex="1" parent="YiXywBWrjNP2boizeY7X-21">
          <mxGeometry y="100" width="130" height="60" as="geometry" />
        </mxCell>
        <mxCell id="4wUArGgQNH9RsOG9-d7T-13" value="-Играть()" style="text;html=1;align=center;verticalAlign=middle;resizable=0;points=[];autosize=1;strokeColor=none;fillColor=none;" vertex="1" parent="YiXywBWrjNP2boizeY7X-21">
          <mxGeometry x="-5" y="100" width="70" height="30" as="geometry" />
        </mxCell>
        <mxCell id="4wUArGgQNH9RsOG9-d7T-16" style="edgeStyle=orthogonalEdgeStyle;rounded=0;orthogonalLoop=1;jettySize=auto;html=1;entryX=0.5;entryY=1;entryDx=0;entryDy=0;endArrow=none;endFill=0;" edge="1" parent="1" source="YiXywBWrjNP2boizeY7X-38" target="YiXywBWrjNP2boizeY7X-21">
          <mxGeometry relative="1" as="geometry" />
        </mxCell>
        <mxCell id="4wUArGgQNH9RsOG9-d7T-18" style="edgeStyle=orthogonalEdgeStyle;rounded=0;orthogonalLoop=1;jettySize=auto;html=1;entryX=1;entryY=0.5;entryDx=0;entryDy=0;endArrow=none;endFill=0;" edge="1" parent="1" source="YiXywBWrjNP2boizeY7X-38" target="YiXywBWrjNP2boizeY7X-67">
          <mxGeometry relative="1" as="geometry" />
        </mxCell>
        <mxCell id="YiXywBWrjNP2boizeY7X-38" value="Жетоны" style="swimlane;whiteSpace=wrap;html=1;startSize=23;" parent="1" vertex="1">
          <mxGeometry x="475" y="392.5" width="160" height="130" as="geometry" />
        </mxCell>
        <mxCell id="YiXywBWrjNP2boizeY7X-72" value="ID_Типа" style="text;html=1;align=center;verticalAlign=middle;resizable=0;points=[];autosize=1;strokeColor=none;fillColor=none;" parent="YiXywBWrjNP2boizeY7X-38" vertex="1">
          <mxGeometry x="40" y="40" width="70" height="30" as="geometry" />
        </mxCell>
        <mxCell id="YiXywBWrjNP2boizeY7X-73" value="*Название жетонов&lt;br&gt;" style="text;html=1;align=center;verticalAlign=middle;resizable=0;points=[];autosize=1;strokeColor=none;fillColor=none;" parent="YiXywBWrjNP2boizeY7X-38" vertex="1">
          <mxGeometry x="10" y="60" width="130" height="30" as="geometry" />
        </mxCell>
        <mxCell id="YiXywBWrjNP2boizeY7X-71" value="ID_Жетона" style="text;html=1;align=center;verticalAlign=middle;resizable=0;points=[];autosize=1;strokeColor=none;fillColor=none;" parent="YiXywBWrjNP2boizeY7X-38" vertex="1">
          <mxGeometry x="35" y="20" width="80" height="30" as="geometry" />
        </mxCell>
        <mxCell id="4wUArGgQNH9RsOG9-d7T-5" value="" style="rounded=0;whiteSpace=wrap;html=1;" vertex="1" parent="YiXywBWrjNP2boizeY7X-38">
          <mxGeometry y="90" width="160" height="40" as="geometry" />
        </mxCell>
        <mxCell id="4wUArGgQNH9RsOG9-d7T-7" value="-Использование жетонов()" style="text;html=1;strokeColor=none;fillColor=none;align=center;verticalAlign=middle;whiteSpace=wrap;rounded=0;" vertex="1" parent="YiXywBWrjNP2boizeY7X-38">
          <mxGeometry x="-5" y="85" width="160" height="30" as="geometry" />
        </mxCell>
        <mxCell id="YiXywBWrjNP2boizeY7X-50" value="Тип карты" style="swimlane;whiteSpace=wrap;html=1;" parent="1" vertex="1">
          <mxGeometry x="-80" y="250" width="145" height="110" as="geometry" />
        </mxCell>
        <mxCell id="YiXywBWrjNP2boizeY7X-51" value="ID_Типа" style="text;html=1;align=center;verticalAlign=middle;resizable=0;points=[];autosize=1;strokeColor=none;fillColor=none;" parent="YiXywBWrjNP2boizeY7X-50" vertex="1">
          <mxGeometry x="30" y="20" width="70" height="30" as="geometry" />
        </mxCell>
        <mxCell id="YiXywBWrjNP2boizeY7X-58" value="*название типа" style="text;html=1;align=center;verticalAlign=middle;resizable=0;points=[];autosize=1;strokeColor=none;fillColor=none;" parent="YiXywBWrjNP2boizeY7X-50" vertex="1">
          <mxGeometry x="10" y="40" width="110" height="30" as="geometry" />
        </mxCell>
        <mxCell id="4wUArGgQNH9RsOG9-d7T-9" value="" style="rounded=0;whiteSpace=wrap;html=1;" vertex="1" parent="YiXywBWrjNP2boizeY7X-50">
          <mxGeometry y="70" width="145" height="40" as="geometry" />
        </mxCell>
        <mxCell id="YiXywBWrjNP2boizeY7X-59" value="" style="fontSize=12;html=1;endArrow=none;rounded=0;exitX=1;exitY=0.25;exitDx=0;exitDy=0;targetPerimeterSpacing=3;endSize=10;endFill=0;" parent="1" source="YiXywBWrjNP2boizeY7X-50" edge="1">
          <mxGeometry width="100" height="100" relative="1" as="geometry">
            <mxPoint x="480" y="-20" as="sourcePoint" />
            <mxPoint x="230" y="280" as="targetPoint" />
          </mxGeometry>
        </mxCell>
        <mxCell id="YiXywBWrjNP2boizeY7X-67" value="Тип жетона" style="swimlane;whiteSpace=wrap;html=1;" parent="1" vertex="1">
          <mxGeometry x="150" y="405" width="145" height="105" as="geometry" />
        </mxCell>
        <mxCell id="YiXywBWrjNP2boizeY7X-68" value="ID_Типа" style="text;html=1;align=center;verticalAlign=middle;resizable=0;points=[];autosize=1;strokeColor=none;fillColor=none;" parent="YiXywBWrjNP2boizeY7X-67" vertex="1">
          <mxGeometry x="30" y="20" width="70" height="30" as="geometry" />
        </mxCell>
        <mxCell id="YiXywBWrjNP2boizeY7X-69" value="*название типа" style="text;html=1;align=center;verticalAlign=middle;resizable=0;points=[];autosize=1;strokeColor=none;fillColor=none;" parent="YiXywBWrjNP2boizeY7X-67" vertex="1">
          <mxGeometry x="10" y="35" width="110" height="30" as="geometry" />
        </mxCell>
        <mxCell id="4wUArGgQNH9RsOG9-d7T-10" value="" style="rounded=0;whiteSpace=wrap;html=1;" vertex="1" parent="YiXywBWrjNP2boizeY7X-67">
          <mxGeometry y="65" width="145" height="40" as="geometry" />
        </mxCell>
        <mxCell id="4wUArGgQNH9RsOG9-d7T-19" value="1" style="text;html=1;strokeColor=none;fillColor=none;align=center;verticalAlign=middle;whiteSpace=wrap;rounded=0;" vertex="1" parent="1">
          <mxGeometry x="620" y="190" width="60" height="30" as="geometry" />
        </mxCell>
        <mxCell id="4wUArGgQNH9RsOG9-d7T-20" value="1...*" style="text;html=1;strokeColor=none;fillColor=none;align=center;verticalAlign=middle;whiteSpace=wrap;rounded=0;" vertex="1" parent="1">
          <mxGeometry x="689" y="190" width="60" height="30" as="geometry" />
        </mxCell>
        <mxCell id="4wUArGgQNH9RsOG9-d7T-21" value="1...*" style="text;html=1;strokeColor=none;fillColor=none;align=center;verticalAlign=middle;whiteSpace=wrap;rounded=0;" vertex="1" parent="1">
          <mxGeometry x="370" y="200" width="60" height="30" as="geometry" />
        </mxCell>
        <mxCell id="4wUArGgQNH9RsOG9-d7T-22" value="1...*" style="text;html=1;strokeColor=none;fillColor=none;align=center;verticalAlign=middle;whiteSpace=wrap;rounded=0;" vertex="1" parent="1">
          <mxGeometry x="190" y="250" width="60" height="30" as="geometry" />
        </mxCell>
        <mxCell id="4wUArGgQNH9RsOG9-d7T-23" value="1...*" style="text;html=1;strokeColor=none;fillColor=none;align=center;verticalAlign=middle;whiteSpace=wrap;rounded=0;" vertex="1" parent="1">
          <mxGeometry x="430" y="430" width="60" height="30" as="geometry" />
        </mxCell>
        <mxCell id="4wUArGgQNH9RsOG9-d7T-24" value="1...*" style="text;html=1;strokeColor=none;fillColor=none;align=center;verticalAlign=middle;whiteSpace=wrap;rounded=0;" vertex="1" parent="1">
          <mxGeometry x="550" y="362.5" width="60" height="30" as="geometry" />
        </mxCell>
        <mxCell id="4wUArGgQNH9RsOG9-d7T-25" value="1" style="text;html=1;strokeColor=none;fillColor=none;align=center;verticalAlign=middle;whiteSpace=wrap;rounded=0;" vertex="1" parent="1">
          <mxGeometry x="440" y="200" width="60" height="30" as="geometry" />
        </mxCell>
        <mxCell id="4wUArGgQNH9RsOG9-d7T-26" value="1" style="text;html=1;strokeColor=none;fillColor=none;align=center;verticalAlign=middle;whiteSpace=wrap;rounded=0;" vertex="1" parent="1">
          <mxGeometry x="60" y="250" width="60" height="30" as="geometry" />
        </mxCell>
        <mxCell id="4wUArGgQNH9RsOG9-d7T-27" value="1" style="text;html=1;strokeColor=none;fillColor=none;align=center;verticalAlign=middle;whiteSpace=wrap;rounded=0;" vertex="1" parent="1">
          <mxGeometry x="275" y="430" width="60" height="30" as="geometry" />
        </mxCell>
        <mxCell id="4wUArGgQNH9RsOG9-d7T-28" value="1" style="text;html=1;strokeColor=none;fillColor=none;align=center;verticalAlign=middle;whiteSpace=wrap;rounded=0;" vertex="1" parent="1">
          <mxGeometry x="540" y="310" width="60" height="30" as="geometry" />
        </mxCell>
      </root>
    </mxGraphModel>
  </diagram>
</mxfile>
